<?xml version="1.0" standalone="no"?>
<!DOCTYPE svg PUBLIC "-//W3C//DTD SVG 20010904//EN"
 "http://www.w3.org/TR/2001/REC-SVG-20010904/DTD/svg10.dtd">
<svg version="1.0" xmlns="http://www.w3.org/2000/svg"
 width="300.000000pt" height="287.000000pt" viewBox="0 0 300.000000 287.000000"
 preserveAspectRatio="xMidYMid meet">
<metadata>
Created by potrace 1.10, written by Peter Selinger 2001-2011
</metadata>
<g transform="translate(0.000000,287.000000) scale(0.050000,-0.050000)"
fill="#000000" stroke="none">
<path d="M281 5022 c-23 -43 19 -82 90 -82 36 0 210 -53 285 -87 50 -23 172
-259 234 -453 19 -60 43 -119 52 -129 10 -10 18 -34 18 -53 0 -19 13 -60 29
-91 17 -32 67 -156 112 -277 45 -121 98 -265 119 -320 21 -55 84 -226 141
-380 57 -154 116 -307 130 -340 15 -33 54 -139 87 -236 34 -96 71 -194 83
-217 12 -22 27 -64 32 -93 5 -29 23 -85 40 -124 17 -38 39 -88 49 -110 9 -22
41 -107 70 -190 29 -82 60 -159 68 -170 9 -11 27 -60 40 -110 13 -49 44 -139
70 -200 76 -182 163 -422 207 -571 135 -457 196 -480 314 -113 41 128 87 262
102 297 15 35 27 71 27 81 0 28 236 739 419 1266 91 259 203 587 251 730 48
143 97 287 109 320 12 33 71 210 131 393 60 184 122 364 138 400 17 37 64 175
105 307 107 344 179 407 407 358 61 -13 160 -31 220 -39 516 -68 780 -638 599
-1289 -170 -608 -500 -855 -1166 -871 -267 -7 -350 -26 -320 -74 7 -10 0 -27
-15 -36 -132 -82 417 -140 872 -93 206 21 567 163 710 279 30 25 78 62 107 83
96 68 108 81 216 232 309 433 349 878 121 1359 -156 328 -613 643 -924 637
-16 0 -66 5 -110 12 -44 6 -282 11 -530 11 -247 0 -600 0 -784 0 -327 1 -333
0 -330 -42 2 -24 24 -50 53 -62 90 -35 129 -50 224 -84 52 -18 104 -45 117
-60 31 -38 3 -352 -37 -421 -7 -11 -14 -38 -18 -60 -3 -22 -14 -62 -24 -90
-11 -27 -38 -131 -61 -230 -22 -99 -54 -216 -69 -260 -61 -170 -277 -880 -311
-1020 -13 -55 -45 -167 -70 -250 -57 -188 -184 -632 -201 -705 -8 -30 -21 -55
-30 -55 -18 0 -18 0 -77 210 -57 203 -356 1081 -422 1240 -9 22 -52 148 -96
280 -101 302 -239 686 -330 920 -124 319 -141 379 -127 436 23 89 82 134 178
134 143 1 249 48 231 103 -16 48 -1529 47 -1555 -1z"/>
</g>
</svg>
