<?xml version="1.0" standalone="no"?>
<!DOCTYPE svg PUBLIC "-//W3C//DTD SVG 20010904//EN"
 "http://www.w3.org/TR/2001/REC-SVG-20010904/DTD/svg10.dtd">
<svg version="1.0" xmlns="http://www.w3.org/2000/svg"
 width="300.000000pt" height="222.000000pt" viewBox="0 0 300.000000 222.000000"
 preserveAspectRatio="xMidYMid meet">
<metadata>
Created by potrace 1.10, written by Peter Selinger 2001-2011
</metadata>
<g transform="translate(0.000000,222.000000) scale(0.050000,-0.050000)"
fill="#000000" stroke="none">
<path d="M1549 4098 c-8 -12 -19 -80 -24 -150 l-10 -128 -86 0 c-47 0 -89 -10
-93 -23 -14 -42 53 -267 88 -292 47 -36 52 -1207 6 -1278 -31 -47 -23 -95 23
-149 22 -25 27 -164 28 -683 0 -547 5 -655 29 -675 52 -43 57 25 43 678 l-14
632 429 0 c235 0 426 -4 422 -10 -14 -24 -30 -360 -32 -705 l-3 -375 -359 0
c-279 0 -357 -6 -351 -25 10 -31 227 -47 585 -43 l260 3 -7 -118 -7 -117 -418
0 c-349 0 -418 -5 -418 -29 0 -42 152 -54 580 -47 l370 6 0 130 c0 179 -9 220
-49 220 -46 0 -35 1102 12 1169 36 53 34 100 -5 133 -41 34 -29 161 32 324
132 353 540 464 795 216 188 -182 254 -542 100 -542 -49 0 -34 -86 26 -151 60
-64 60 -1149 1 -1149 -60 0 -83 -149 -50 -315 l12 -61 413 -2 c412 -2 523 9
538 54 6 18 -100 24 -433 24 l-442 0 -2 75 c-1 41 -5 98 -10 125 l-8 50 428 0
c236 0 435 6 442 14 45 45 -35 56 -401 56 l-389 0 0 549 0 550 420 0 420 0 0
-675 c0 -371 9 -687 19 -703 32 -51 41 88 49 754 l7 644 46 38 c48 39 43 120
-6 90 -19 -11 -19 -7 1 17 22 27 21 34 -5 39 -47 10 -57 1153 -11 1192 25 22
21 25 -30 20 -33 -3 -61 -16 -62 -30 -2 -14 -4 -47 -5 -74 l-3 -50 -1460 5
-1460 4 0 60 c0 33 -5 78 -11 100 -11 40 -3 40 1517 34 l1528 -6 45 122 c24
68 57 127 73 133 80 31 26 71 -87 64 l-115 -7 -6 155 -6 155 -1448 0 c-1035 0
-1452 -6 -1461 -22z m1469 -58 l1388 -10 3 -110 4 -110 -662 5 c-363 3 -999 5
-1412 5 l-751 0 1 128 c0 81 8 123 21 115 11 -7 645 -17 1408 -23z m1552 -337
c-6 -15 -16 -48 -22 -75 -14 -55 92 -50 -1188 -48 -530 1 -1927 21 -1932 27
-1 2 -8 33 -15 69 l-12 66 1590 -6 c1320 -5 1588 -11 1579 -33z m-130 -913 c0
-242 6 -460 13 -485 l12 -45 -419 0 -418 0 -1 126 c-3 236 -157 466 -383 569
-387 178 -816 -98 -861 -553 l-13 -132 -425 -5 -425 -6 0 488 0 487 1460 -2
1460 -2 0 -440z m-1947 -621 c7 -17 7 -36 1 -42 -15 -14 -966 -9 -1005 6 -89
34 20 47 456 52 267 3 497 8 511 10 14 3 31 -9 37 -26z m2033 -2 c45 -45 -74
-57 -524 -51 -398 4 -480 10 -489 35 -12 30 983 46 1013 16z"/>
<path d="M1955 3005 l-275 -6 0 -218 c0 -120 9 -241 20 -270 l19 -51 270 0
c239 0 268 4 257 32 -6 18 0 39 13 48 33 20 50 372 20 391 -11 7 -15 30 -8 51
8 25 3 37 -15 34 -14 -3 -150 -8 -301 -11z m265 -270 l0 -205 -240 0 -240 0 0
194 0 195 235 6 c129 4 237 8 240 11 3 2 5 -88 5 -201z"/>
<path d="M3725 2967 c-50 -21 -33 -411 21 -474 45 -53 558 -88 526 -37 -5 9 8
32 30 51 37 32 40 55 34 249 l-6 214 -290 4 c-159 2 -301 -1 -315 -7z m547
-257 l-2 -190 -210 0 c-115 0 -228 -5 -250 -11 -38 -10 -40 -1 -40 190 l0 201
252 0 252 0 -2 -190z"/>
<path d="M934 3095 c-112 -136 -142 -332 -118 -785 9 -165 15 -302 13 -305 -2
-3 -24 51 -49 120 -25 69 -73 166 -106 215 -33 50 -62 92 -63 94 -2 3 -24 -1
-49 -8 -138 -36 61 -587 267 -739 37 -27 56 -67 71 -147 11 -60 26 -125 31
-144 6 -19 -46 23 -117 93 -108 109 -238 185 -271 160 -63 -51 281 -513 433
-580 55 -24 113 -74 161 -138 116 -155 116 -155 2 -111 -165 65 -339 77 -339
23 0 -112 368 -332 602 -359 98 -12 145 -29 185 -66 116 -108 393 -247 393
-197 0 10 -47 48 -105 85 -269 172 -588 490 -565 563 54 167 20 709 -48 777
-55 55 -134 -420 -96 -576 29 -118 -41 6 -95 168 -99 297 -101 348 -21 491
138 246 212 651 120 651 -16 0 -30 -9 -30 -19 0 -10 -26 -58 -57 -105 -67
-100 -143 -296 -143 -367 0 -27 -8 -49 -19 -49 -55 0 -32 428 31 590 116 294
135 495 63 666 l-27 64 -54 -65z m59 -275 c-14 -137 -92 -394 -110 -364 -24
37 13 417 48 498 44 103 78 30 62 -134z m-301 -626 c54 -104 170 -419 159
-430 -43 -43 -226 312 -242 470 -14 130 -3 125 83 -40z m429 -137 c-44 -147
-170 -391 -177 -341 -8 56 64 279 133 414 59 115 87 69 44 -73z m-281 -676 c0
-8 41 -61 90 -119 50 -58 90 -114 90 -125 0 -64 -255 189 -331 328 l-56 103
103 -87 c57 -48 104 -93 104 -100z m436 -191 c0 -110 -6 -222 -14 -250 -24
-83 -69 202 -56 347 27 288 70 228 70 -97z m-255 -402 c159 -46 497 -248 416
-248 -98 0 -472 175 -512 240 -14 22 -22 40 -19 40 4 0 56 -14 115 -32z"/>
<path d="M4991 3095 c-72 -171 -50 -364 81 -712 44 -117 49 -152 37 -283 -18
-200 -29 -210 -69 -65 -39 141 -155 345 -197 345 -90 0 14 -527 137 -701 l44
-61 -39 -194 c-22 -108 -57 -236 -79 -285 l-39 -89 -1 180 c-2 312 -122 535
-155 289 -29 -209 -33 -340 -16 -505 16 -166 14 -181 -27 -237 -91 -123 -444
-421 -553 -466 -90 -38 -113 -71 -49 -71 57 0 252 100 359 184 41 32 81 55 90
50 127 -78 783 296 688 391 -31 31 -244 -11 -367 -72 -53 -26 -96 -43 -96 -38
0 43 219 272 307 322 186 104 473 510 408 575 -34 33 -256 -140 -361 -282 -32
-44 -53 -62 -47 -40 6 22 29 111 52 197 35 138 53 171 154 279 177 192 299
570 212 657 -27 27 -144 -114 -223 -269 l-63 -124 13 373 c15 434 0 534 -102
651 l-67 76 -32 -75z m108 -150 c30 -90 52 -550 24 -505 -35 57 -104 365 -100
447 7 154 36 176 76 58z m291 -758 c-32 -118 -157 -344 -208 -376 -36 -22 -2
105 71 267 139 306 204 358 137 109z m-403 -162 c69 -175 94 -325 55 -325 -33
0 -124 276 -152 460 -20 127 10 85 97 -135z m320 -587 c-51 -93 -301 -350
-322 -330 -27 28 307 432 358 432 11 0 -6 -46 -36 -102z m-496 -108 c13 -122
1 -311 -25 -400 -35 -119 -60 202 -33 425 17 142 41 132 58 -25z m248 -581
c-64 -69 -307 -184 -419 -199 l-90 -12 60 51 c33 28 68 51 77 51 9 0 42 18 72
39 73 52 239 119 299 120 l49 1 -48 -51z"/>
<path d="M4018 1775 c-2 -198 -2 -561 0 -601 2 -33 5 -34 32 -7 31 31 46 628
18 701 -26 68 -48 26 -50 -93z"/>
<path d="M1895 1715 c-21 -396 -4 -670 40 -627 32 33 31 772 -2 772 -23 0 -32
-33 -38 -145z"/>
</g>
</svg>
