<?xml version="1.0" standalone="no"?>
<!DOCTYPE svg PUBLIC "-//W3C//DTD SVG 20010904//EN"
 "http://www.w3.org/TR/2001/REC-SVG-20010904/DTD/svg10.dtd">
<svg version="1.0" xmlns="http://www.w3.org/2000/svg"
 width="300.000000pt" height="323.000000pt" viewBox="0 0 300.000000 323.000000"
 preserveAspectRatio="xMidYMid meet">
<metadata>
Created by potrace 1.10, written by Peter Selinger 2001-2011
</metadata>
<g transform="translate(0.000000,323.000000) scale(0.050000,-0.050000)"
fill="#000000" stroke="none">
<path d="M2920 6125 c-412 -3 -763 -10 -779 -16 -59 -22 25 -48 157 -49 206 0
131 -18 -94 -21 -238 -5 -244 -9 -231 -180 9 -106 7 -111 -47 -130 l-56 -20
52 -53 c52 -51 53 -60 63 -379 5 -180 16 -341 23 -358 9 -21 -3 -40 -37 -59
-61 -32 -67 -103 -13 -143 53 -38 85 -1137 33 -1137 -17 0 -31 -9 -31 -20 0
-11 8 -20 19 -20 10 0 14 -22 10 -48 -11 -60 4 -65 201 -61 504 8 470 4 470
59 0 28 -9 50 -19 50 -11 0 -15 13 -9 28 6 15 1 34 -11 41 -33 21 -3 1042 32
1110 34 66 34 90 -3 121 -34 29 -23 154 23 245 75 147 353 218 483 122 119
-89 211 -293 152 -336 -40 -29 -51 -131 -16 -145 39 -14 45 -80 57 -618 l10
-482 -51 -23 c-49 -23 -57 -101 -15 -143 38 -37 666 -19 687 21 27 49 8 119
-31 119 -16 0 -29 10 -29 21 0 12 -11 15 -25 6 -18 -11 -20 -7 -5 14 12 18 20
236 20 552 0 288 7 519 15 514 15 -10 23 50 17 123 -2 22 -10 108 -18 190 -28
299 -9 539 44 559 89 34 97 131 13 148 -58 11 -59 14 -65 157 l-6 146 -160 10
c-152 9 -155 39 -4 40 70 0 54 33 -21 43 -30 4 -392 5 -805 2z m885 -250 c6
-58 9 -106 8 -108 -2 -2 -399 -6 -883 -9 l-880 -7 -6 115 -6 114 878 0 879 0
10 -105z m154 -221 c-2 -92 -45 -96 -1001 -94 l-902 1 -36 44 -36 45 733 10
c403 6 848 12 988 14 191 4 255 -1 254 -20z m-102 -266 l-5 -90 -91 5 c-166 9
-264 -1 -249 -26 9 -15 62 -18 171 -9 l157 13 0 -161 c0 -93 8 -160 20 -160
11 0 20 -13 20 -30 0 -25 -38 -30 -220 -30 -121 0 -227 -2 -235 -5 -8 -3 -21
52 -29 122 -48 437 -654 490 -855 75 -43 -88 -55 -183 -21 -162 11 7 14 -1 8
-19 -10 -25 -52 -31 -229 -31 l-217 0 -11 65 c-5 36 -12 171 -16 300 l-5 234
460 6 c253 3 661 2 906 -1 l446 -5 -5 -91z m-1293 -573 c61 -4 71 -11 56 -35
-55 -88 -660 -52 -660 39 0 10 426 7 604 -4z m1336 -13 c0 -56 -430 -95 -548
-50 -42 16 -41 63 2 72 153 29 546 14 546 -22z m-42 -183 c-10 -41 -15 -286
-13 -544 l5 -471 -190 5 c-104 3 -200 6 -213 8 -15 2 -23 103 -25 328 -3 337
-16 599 -34 660 -15 50 78 67 464 87 15 1 17 -22 6 -73z m-1348 -19 c-7 -33
-13 -267 -14 -520 l0 -460 -53 -2 c-29 -1 -123 -3 -208 -5 l-155 -3 0 420 c0
231 -6 467 -13 525 l-13 105 235 0 234 0 -13 -60z m85 -1075 c6 -19 -37 -26
-168 -28 -97 -2 -213 -6 -258 -9 -90 -6 -156 21 -115 48 43 27 531 18 541 -11z
m1358 5 c-14 -45 -602 -47 -619 -2 -8 19 64 24 308 23 202 0 316 -8 311 -21z"/>
<path d="M2180 5302 l-50 -14 50 -14 c73 -20 276 -17 289 4 23 38 -180 55
-289 24z"/>
<path d="M3621 4121 c1 -209 8 -400 14 -425 l13 -46 14 50 c31 111 20 800 -13
800 -26 0 -30 -50 -28 -379z"/>
<path d="M2252 4468 c-16 -41 -15 -557 1 -675 26 -194 47 -55 47 318 0 352
-13 448 -48 357z"/>
<path d="M1556 5604 c-123 -123 -121 -117 -187 -474 -38 -209 -67 -279 -68
-165 -1 86 -60 315 -82 315 -128 0 -128 -468 0 -629 50 -62 55 -80 36 -112
-19 -31 -18 -43 8 -64 29 -22 75 -275 50 -275 -5 0 -33 47 -63 105 -97 188
-219 375 -240 369 -35 -12 -35 -255 0 -348 35 -90 189 -244 287 -288 46 -20
63 -50 100 -176 24 -84 58 -183 74 -222 28 -64 20 -59 -85 53 -164 175 -293
257 -335 216 -93 -94 225 -449 401 -449 71 0 245 -153 372 -327 l41 -56 -78
39 c-186 95 -441 139 -430 74 24 -143 277 -265 563 -272 103 -2 172 -15 220
-40 39 -21 128 -59 199 -85 l129 -48 -89 -14 c-212 -32 -302 -56 -313 -84 -19
-50 4 -50 196 -5 240 56 714 27 516 -32 -61 -18 -198 -110 -198 -133 0 -32 94
-17 146 24 155 121 288 121 464 -3 123 -86 150 -94 150 -46 0 38 -62 94 -170
152 l-80 44 60 14 c114 26 264 18 420 -22 170 -43 270 -51 270 -21 0 26 -173
76 -320 93 -115 13 -169 48 -74 48 26 0 64 13 85 29 22 17 50 30 64 30 14 1
72 23 129 51 88 43 132 50 295 50 159 0 208 8 291 48 172 81 337 252 244 252
-77 0 -273 -49 -399 -101 l-143 -58 169 170 c93 94 192 175 219 181 193 41
405 196 468 343 18 41 43 90 56 109 108 152 -189 -3 -399 -208 -58 -56 -105
-97 -105 -91 0 25 170 366 192 385 235 204 374 452 364 648 l-6 111 -75 -75
c-85 -86 -203 -306 -258 -484 -21 -66 -33 -89 -27 -52 6 38 16 146 23 240 10
130 27 199 68 282 93 185 122 358 92 545 -30 183 -98 81 -184 -275 -18 -76
-57 43 -100 307 -39 238 -63 299 -162 400 -49 49 -91 85 -95 81 -84 -97 -14
-397 134 -573 75 -90 152 -267 166 -385 l9 -70 -35 70 c-133 265 -347 456
-330 295 15 -149 136 -329 279 -418 50 -31 65 -54 65 -100 0 -33 7 -55 16 -50
25 16 14 -245 -16 -372 -32 -139 -32 -139 -59 31 -40 246 -179 440 -209 290
-33 -166 -6 -310 98 -519 l66 -132 -80 -158 c-44 -86 -101 -179 -127 -205
l-46 -48 20 88 c41 176 -7 490 -71 466 -76 -29 -102 -146 -96 -430 7 -273 7
-273 -45 -313 -28 -23 -51 -47 -51 -54 0 -23 -109 -110 -138 -110 -16 -1 -77
-28 -135 -61 -130 -73 -130 -72 -16 52 134 144 227 388 147 388 -44 0 -252
-237 -348 -398 -100 -167 -100 -168 -220 -202 -215 -61 -283 -73 -322 -58 -21
8 -63 16 -93 17 -31 0 -71 10 -90 20 -19 10 -81 33 -138 51 -121 37 -148 65
-225 223 -82 169 -394 444 -332 292 8 -19 22 -63 32 -97 36 -123 196 -288 323
-333 14 -5 19 -16 11 -24 -7 -8 -96 29 -198 82 -243 128 -406 299 -389 407 61
391 -3 746 -100 558 -63 -121 -53 -450 16 -533 15 -19 13 -23 -8 -15 -36 14
-105 126 -176 287 l-56 127 86 246 c100 287 121 530 46 530 -32 0 -159 -302
-171 -405 -10 -81 -46 -159 -46 -98 0 10 -9 107 -19 216 -19 185 -6 350 24
327 18 -13 231 197 264 260 35 69 54 180 31 180 -10 0 -14 13 -8 29 9 22 0 25
-39 15 -78 -22 -265 -301 -301 -451 -26 -110 -37 -34 -13 91 38 198 74 287
179 442 177 261 248 453 197 534 -33 53 -28 55 -159 -76z m24 -151 c-34 -73
-64 -152 -65 -177 -1 -26 -24 -77 -51 -116 -27 -41 -43 -53 -37 -30 5 22 16
90 24 150 16 126 73 254 136 304 64 51 62 15 -7 -131z m2795 42 c29 -58 58
-164 74 -265 7 -44 18 -98 24 -120 8 -31 -2 -27 -43 20 -64 72 -118 169 -101
185 6 7 11 1 11 -12 0 -12 8 -23 17 -23 9 0 6 59 -8 130 -24 132 -14 167 26
85z m-3135 -470 c51 -266 62 -365 40 -365 -25 0 -95 199 -100 281 -13 220 23
271 60 84z m3506 -15 c-40 -258 -114 -485 -137 -424 -14 36 -9 61 74 379 44
166 87 197 63 45z m-410 -95 c43 -58 103 -145 133 -194 l56 -89 -81 65 c-89
70 -156 167 -184 262 -24 83 -13 77 76 -44z m-2696 17 c0 -30 -64 -113 -166
-214 -76 -77 -56 -26 49 124 82 117 117 144 117 90z m3259 -466 c-50 -156
-198 -376 -229 -342 -11 12 137 307 185 371 62 81 77 72 44 -29z m-3766 -71
c41 -69 94 -152 118 -185 80 -111 83 -123 18 -82 -132 84 -249 256 -249 367 0
66 26 43 113 -100z m449 -158 c-56 -217 -107 -327 -117 -251 -12 87 115 441
147 409 4 -5 -9 -76 -30 -158z m2837 -96 c35 -119 50 -218 42 -271 -12 -82
-141 313 -140 430 0 81 52 -3 98 -159z m-3191 -380 c221 -171 316 -311 138
-202 -85 52 -266 227 -266 257 0 38 19 29 128 -55z m551 -127 c-2 -198 -26
-283 -45 -163 -17 100 -18 276 -2 317 27 70 48 1 47 -154z m3041 149 c0 -55
-341 -309 -372 -277 -14 13 164 168 271 237 98 63 101 64 101 40z m-668 -76
c15 -59 -2 -378 -23 -432 -28 -73 -39 -12 -35 188 2 114 5 227 5 252 1 62 37
57 53 -8z m-412 -476 c-56 -147 -214 -351 -272 -351 -18 0 57 114 175 265 117
150 124 157 97 86z m-1973 -163 c67 -28 139 -52 158 -51 19 0 35 -8 35 -18 0
-25 -46 -24 -191 3 -111 20 -309 104 -309 131 0 25 187 -14 307 -65z m2655 44
c-59 -70 -426 -175 -454 -129 -6 9 -7 17 -4 17 4 0 96 31 206 70 219 76 290
88 252 42z m-2111 -127 c-12 -13 -103 58 -131 102 -13 21 13 9 58 -28 45 -36
78 -70 73 -74z"/>
<path d="M340 2082 c0 -9 21 -31 47 -48 30 -20 72 -94 113 -198 36 -91 82
-202 101 -246 39 -90 102 -247 139 -345 30 -79 68 -83 96 -10 11 30 77 208
147 395 71 191 146 360 172 386 69 70 56 84 -75 84 -126 0 -147 -17 -78 -63
41 -27 40 -29 -67 -323 l-108 -296 -126 304 c-111 268 -122 306 -93 322 18 10
28 27 21 37 -14 24 -289 25 -289 1z"/>
<path d="M1300 2080 c0 -8 23 -30 50 -48 74 -49 72 -741 -3 -764 -101 -31
-100 -29 -63 -50 19 -10 167 -17 330 -14 l296 6 18 85 c23 112 6 125 -65 48
-55 -58 -69 -63 -191 -63 l-132 0 0 179 0 179 105 -11 c81 -9 115 -23 150 -64
l45 -53 3 90 c7 177 -7 212 -55 144 -25 -37 -50 -44 -144 -44 l-114 0 4 145
c3 80 5 152 5 160 2 45 261 14 293 -35 57 -87 89 -40 56 83 -12 44 -588 71
-588 27z"/>
<path d="M2000 2080 c0 -12 25 -31 56 -41 40 -15 92 -79 191 -238 l136 -219
-7 -146 c-6 -137 -9 -147 -61 -172 -88 -42 -45 -64 125 -64 163 0 220 26 131
60 -154 58 -3 577 221 755 94 76 87 85 -62 85 -122 0 -171 -26 -100 -53 45
-17 38 -39 -62 -210 l-91 -156 -59 104 c-124 222 -129 236 -98 255 48 30 11
42 -158 52 -108 6 -162 2 -162 -12z"/>
<path d="M2920 2065 c0 -14 13 -25 29 -25 57 0 71 -78 71 -387 0 -344 -5 -368
-74 -394 -86 -33 -27 -59 134 -59 163 0 220 26 131 60 -33 12 -52 35 -53 65 0
25 -5 97 -9 160 -12 175 68 169 190 -15 163 -243 193 -270 307 -270 l104 0
-65 52 c-36 28 -93 93 -128 145 -35 51 -86 119 -115 151 -42 46 -46 59 -22 68
183 65 204 334 34 434 -79 47 -534 59 -534 15z m421 -66 c166 -89 98 -306
-101 -322 l-90 -7 3 90 c8 288 -1 260 78 260 40 0 89 -9 110 -21z"/>
<path d="M4030 2063 c-321 -146 -340 -672 -30 -832 151 -79 364 -47 483 72
354 354 -8 962 -453 760z m331 -118 c163 -154 149 -547 -23 -636 -189 -98
-367 26 -408 285 -53 333 217 553 431 351z"/>
<path d="M4680 2078 c0 -12 18 -27 41 -32 78 -21 94 -95 85 -406 -9 -353 -14
-380 -68 -380 -111 0 -13 -51 109 -56 147 -6 156 0 85 66 -47 44 -49 55 -50
323 l-1 277 55 -69 c30 -38 104 -128 164 -200 61 -72 159 -192 219 -266 139
-173 166 -175 161 -10 -15 446 -1 699 40 709 90 24 40 60 -75 54 -63 -4 -122
-7 -130 -7 -28 -2 -15 -41 13 -41 62 0 73 -54 68 -321 l-6 -266 -189 238
c-306 385 -331 409 -434 409 -50 0 -87 -9 -87 -22z"/>
<path d="M2411 628 c-52 -127 -108 -236 -123 -242 -49 -19 -7 -47 64 -42 67 4
86 22 49 46 -57 35 26 110 122 110 96 0 147 -55 109 -116 -10 -16 127 -52 141
-38 3 3 -29 77 -70 165 -42 87 -93 202 -115 254 -54 134 -68 123 -177 -137z
m146 21 c38 -83 30 -103 -37 -93 -33 5 -60 16 -60 25 0 29 46 119 60 119 7 0
24 -23 37 -51z"/>
<path d="M1860 820 c0 -11 9 -20 20 -20 39 0 25 -395 -15 -418 -42 -25 -40
-26 80 -32 86 -4 129 15 73 34 -59 20 -37 153 24 152 173 -5 263 207 120 283
-50 27 -302 28 -302 1z m256 -64 c59 -59 17 -146 -76 -159 -47 -7 -50 -1 -56
88 -7 100 65 138 132 71z"/>
<path d="M2912 805 c35 -73 34 -390 -1 -410 -48 -27 -23 -46 68 -52 76 -4 106
19 61 47 -11 7 -20 48 -20 93 0 110 54 98 120 -29 30 -57 68 -100 94 -107 64
-16 90 8 55 49 -17 19 -54 63 -82 100 l-51 65 52 52 c63 63 65 105 11 174 -54
68 -338 84 -307 18z m246 -62 c27 -51 -25 -123 -89 -123 -44 0 -49 8 -49 80 0
91 96 121 138 43z"/>
<path d="M3449 805 c22 -56 15 -414 -8 -421 -42 -14 3 -44 65 -44 l64 0 0 250
0 250 -67 0 c-56 0 -65 -6 -54 -35z"/>
<path d="M3783 789 c-26 -33 -37 -70 -31 -105 10 -57 25 -72 127 -128 73 -41
95 -85 61 -126 -33 -40 -98 -38 -144 4 -29 26 -42 28 -61 8 -32 -32 48 -102
116 -102 204 0 256 189 77 281 -171 88 -120 204 57 129 27 -11 35 -5 35 26 0
82 -175 92 -237 13z"/>
</g>
</svg>
