<?xml version="1.0" standalone="no"?>
<!DOCTYPE svg PUBLIC "-//W3C//DTD SVG 20010904//EN"
 "http://www.w3.org/TR/2001/REC-SVG-20010904/DTD/svg10.dtd">
<svg version="1.0" xmlns="http://www.w3.org/2000/svg"
 width="300.000000pt" height="340.000000pt" viewBox="0 0 300.000000 340.000000"
 preserveAspectRatio="xMidYMid meet">
<metadata>
Created by potrace 1.10, written by Peter Selinger 2001-2011
</metadata>
<g transform="translate(0.000000,340.000000) scale(0.050000,-0.050000)"
fill="#000000" stroke="none">
<path d="M1549 6458 c-8 -12 -19 -80 -24 -150 l-10 -128 -86 0 c-47 0 -89 -10
-93 -22 -14 -42 58 -283 90 -301 45 -25 48 -1202 3 -1271 -30 -46 -14 -128 30
-155 14 -9 21 -228 22 -667 0 -538 5 -661 29 -692 52 -68 56 7 43 668 l-12
636 404 8 c492 9 452 20 432 -120 -19 -136 -25 -915 -7 -944 8 -13 -116 -20
-358 -20 -225 0 -374 -8 -382 -20 -28 -45 107 -61 473 -55 l377 5 0 -115 0
-115 -409 0 c-385 0 -467 -11 -421 -56 7 -8 224 -17 482 -20 l468 -7 -8 117
c-4 64 -8 140 -10 169 -1 32 -16 56 -38 62 -48 12 -40 1115 8 1184 36 52 35
100 -2 131 -62 51 1 327 108 475 140 192 441 254 635 129 224 -143 369 -565
207 -597 -75 -15 -78 -62 -10 -143 l50 -60 0 -549 0 -549 -50 -22 c-53 -25
-68 -147 -37 -302 l12 -62 426 0 c251 0 449 9 482 21 111 43 -2 58 -418 59
l-415 0 -3 100 c-2 55 -4 110 -5 122 -1 15 131 23 428 25 367 3 430 7 430 33
0 25 -60 31 -395 35 l-395 6 0 547 0 547 420 -1 420 0 1 -672 c2 -643 16 -859
46 -672 7 44 15 368 18 720 5 637 5 640 50 676 54 44 59 93 10 96 -21 1 -25 5
-10 11 34 14 31 43 -5 51 -33 7 -57 1176 -25 1176 8 0 15 10 15 21 0 30 -89
15 -92 -16 -2 -14 -4 -48 -5 -77 l-3 -51 -1460 6 -1460 5 0 61 c0 34 -5 79
-11 101 -11 40 -3 40 1517 34 l1528 -6 25 66 c51 137 81 196 101 196 11 0 20
14 20 32 0 26 -20 31 -115 25 l-115 -7 -6 155 -6 155 -1448 0 c-1035 0 -1452
-6 -1461 -22z m1469 -58 l1388 -10 3 -110 4 -110 -672 3 c-369 1 -1004 3
-1412 5 l-741 2 1 128 c0 81 8 123 21 115 11 -7 645 -17 1408 -23z m1552 -337
c-6 -15 -16 -48 -22 -75 -12 -48 -15 -48 -285 -51 -589 -6 -2826 18 -2835 30
-1 2 -8 32 -15 68 l-12 65 1590 -5 c1320 -4 1588 -10 1579 -32z m-1426 -483
l1294 0 6 -475 c3 -261 5 -478 3 -481 -2 -6 -269 -8 -658 -5 l-161 1 -1 125
c-7 800 -1165 816 -1244 17 l-13 -132 -425 -5 -425 -6 0 494 0 493 165 -13
c91 -7 747 -13 1459 -13z m-656 -1053 c7 -18 8 -38 2 -44 -21 -21 -919 -20
-975 1 -117 44 -38 55 430 61 267 3 495 8 508 10 12 3 28 -10 35 -28z m2041
-6 c26 -41 -60 -50 -516 -50 -435 -1 -479 2 -496 34 -21 40 988 56 1012 16z"/>
<path d="M1965 5364 l-285 -5 0 -218 c0 -229 16 -308 68 -327 68 -26 509 10
497 41 -6 16 1 36 15 45 33 20 50 380 17 380 -12 0 -17 18 -11 40 14 53 26 51
-301 44z m255 -271 l0 -207 -240 1 -240 1 0 195 0 196 235 6 c129 4 237 8 240
11 3 2 5 -89 5 -203z"/>
<path d="M3725 5327 c-18 -7 -25 -70 -25 -216 0 -301 11 -311 339 -311 136 0
242 5 236 12 -6 6 6 29 28 51 36 36 40 62 34 254 l-7 213 -290 4 c-159 2 -301
-1 -315 -7z m547 -262 l-2 -195 -250 0 -250 0 -1 195 -1 195 252 0 253 0 -1
-195z"/>
<path d="M925 5445 c-102 -125 -132 -340 -108 -785 8 -159 14 -292 12 -295 -2
-3 -22 46 -45 110 -143 389 -333 408 -233 23 40 -155 104 -267 234 -409 82
-91 103 -129 125 -234 32 -153 31 -153 -45 -58 -167 207 -345 260 -275 82 82
-208 236 -387 394 -458 65 -30 269 -255 249 -275 -5 -4 -52 10 -107 31 -148
59 -314 65 -322 12 -14 -101 373 -330 583 -346 104 -7 133 -20 247 -106 141
-107 208 -145 291 -165 83 -20 70 -5 -134 146 -286 212 -498 432 -482 499 53
213 16 783 -50 783 -55 0 -129 -386 -102 -530 28 -143 -20 -73 -86 128 -99
297 -101 348 -21 491 126 225 213 651 133 651 -52 0 -241 -378 -242 -484 -1
-29 -9 -59 -20 -65 -51 -32 -33 435 22 569 118 285 145 533 75 687 -30 66 -37
66 -93 -2z m68 -261 c-11 -118 -93 -411 -110 -394 -32 33 16 473 62 559 33 62
61 -33 48 -165z m-304 -624 c25 -49 74 -171 109 -270 l62 -180 -73 80 c-98
108 -168 266 -180 405 -11 128 -1 123 82 -35z m432 -145 c-46 -152 -168 -389
-176 -340 -9 54 55 252 131 405 61 124 89 84 45 -65z m-109 -901 c23 -72 -10
-55 -136 69 -109 108 -238 292 -235 335 2 22 359 -367 371 -404z m264 36 c-1
-110 -7 -227 -14 -260 -22 -97 -70 224 -55 367 28 277 69 214 69 -107z m-182
-433 c155 -57 398 -217 331 -217 -54 0 -251 72 -357 131 -222 123 -207 173 26
86z"/>
<path d="M4971 5396 c-48 -161 -28 -300 91 -623 54 -148 58 -177 46 -318 -15
-174 -37 -212 -58 -100 -25 137 -162 385 -211 385 -72 0 -5 -413 102 -631 l79
-160 -29 -151 c-25 -130 -103 -378 -119 -378 -3 0 -6 81 -6 180 -1 182 -83
432 -127 387 -40 -41 -67 -431 -43 -637 l18 -160 -72 -88 c-97 -120 -400 -370
-523 -432 -90 -46 -144 -111 -67 -82 17 7 43 12 57 12 14 0 105 48 203 107
142 85 202 110 298 120 223 26 636 286 604 382 -17 49 -316 -11 -433 -87 -42
-27 -46 -27 -30 -1 79 130 208 268 287 308 180 91 422 413 422 561 0 70 -220
-81 -343 -236 -46 -57 -77 -86 -70 -64 7 22 30 110 52 197 35 134 53 169 133
250 165 167 251 356 250 551 0 205 -84 159 -236 -130 l-67 -128 12 390 c14
418 3 488 -92 621 -61 85 -93 74 -128 -45z m128 -91 c30 -90 52 -550 24 -505
-31 51 -103 354 -103 438 0 152 39 185 79 67z m312 -680 c-16 -117 -130 -359
-201 -425 l-53 -50 14 60 c32 138 209 510 242 510 6 0 6 -43 -2 -95z m-381
-363 c41 -121 45 -222 9 -222 -24 0 -132 349 -146 470 l-12 100 53 -110 c29
-60 73 -167 96 -238z m292 -437 c-54 -106 -146 -217 -245 -295 -161 -127 -111
-23 99 209 160 175 206 203 146 86z m-511 -135 c13 -121 2 -293 -26 -409 -34
-142 -59 206 -32 434 17 142 41 132 58 -25z m238 -591 c-94 -98 -489 -254
-489 -192 0 37 429 250 509 252 34 1 31 -7 -20 -60z"/>
<path d="M4018 4135 c-2 -207 -2 -563 0 -599 1 -22 13 -31 32 -23 31 12 47
640 18 715 -26 68 -48 26 -50 -93z"/>
<path d="M1895 4075 c-22 -381 -4 -670 40 -627 32 33 31 772 -2 772 -23 0 -32
-33 -38 -145z"/>
<path d="M4292 2195 c-289 -76 -436 -497 -269 -769 209 -340 733 -262 839 124
114 413 -182 748 -570 645z m258 -112 c204 -125 219 -589 24 -732 -210 -153
-433 40 -434 375 0 309 201 485 410 357z"/>
<path d="M2607 2175 c-5 -8 14 -24 42 -35 59 -22 62 -35 22 -93 -16 -23 -60
-102 -98 -176 l-69 -134 -102 173 c-111 190 -117 206 -72 223 75 29 15 47
-153 47 l-184 0 73 -65 c129 -116 328 -469 323 -575 -2 -50 -5 -124 -7 -165
-2 -63 -11 -80 -55 -96 -79 -30 -49 -41 141 -51 174 -9 205 4 133 55 -34 23
-40 53 -43 200 l-3 173 104 183 c118 205 191 301 232 301 115 0 16 38 -113 43
-89 4 -166 0 -171 -8z"/>
<path d="M5671 2181 c-8 -12 9 -30 36 -40 63 -24 78 -109 69 -403 l-6 -212
-170 228 c-93 126 -205 273 -249 328 l-78 98 -137 0 c-77 0 -136 -9 -136 -20
0 -11 13 -20 30 -20 69 0 87 -81 89 -395 3 -378 -7 -441 -75 -467 -83 -32 -24
-50 134 -42 l148 8 -58 46 -58 46 -7 337 c-4 212 1 330 12 317 11 -11 147
-186 304 -390 270 -351 340 -423 341 -351 1 17 1 195 2 396 1 415 8 476 61
490 75 19 34 45 -71 45 -60 0 -122 5 -138 11 -17 7 -36 2 -43 -10z"/>
<path d="M180 2170 c0 -5 16 -26 36 -46 20 -20 97 -184 171 -365 164 -399 237
-550 263 -546 19 2 80 139 298 671 65 159 109 239 134 247 79 25 33 49 -92 49
-73 0 -130 -9 -130 -20 0 -11 13 -20 28 -20 15 0 32 -12 38 -27 14 -36 -229
-638 -249 -618 -24 25 -237 560 -237 597 0 18 16 46 35 60 30 23 12 27 -130
27 -91 1 -165 -3 -165 -9z"/>
<path d="M1180 2170 c0 -6 23 -20 50 -30 57 -22 53 2 60 -440 4 -343 -3 -402
-53 -415 -115 -30 1 -45 308 -40 l345 5 17 96 c23 123 6 138 -62 56 -52 -62
-64 -66 -220 -76 l-165 -12 0 138 c0 76 -6 158 -13 183 -19 73 243 69 277 -5
38 -83 56 -57 56 80 0 141 -6 150 -57 91 -25 -29 -63 -40 -152 -44 l-120 -5
-5 173 -5 173 164 -7 c148 -7 167 -13 201 -60 50 -69 66 -53 57 57 l-7 92
-338 0 c-186 0 -338 -5 -338 -10z"/>
<path d="M2980 2170 c0 -6 23 -20 50 -30 l50 -19 0 -411 0 -411 -53 -20 c-84
-32 -38 -48 145 -49 181 -2 217 10 137 47 -43 20 -49 35 -51 138 -2 63 -4 142
-5 175 -2 46 6 61 37 65 58 7 70 -5 208 -211 131 -196 169 -224 302 -224 92 0
122 33 54 58 -26 11 -75 53 -108 95 -81 105 -213 308 -203 314 4 3 32 16 62
29 172 73 177 351 8 431 -66 32 -633 52 -633 23z m520 -96 c171 -86 71 -316
-150 -345 l-100 -13 2 177 c2 97 4 184 5 192 5 25 189 16 243 -11z"/>
<path d="M1868 580 l-1 -240 55 0 c56 0 56 1 44 100 l-12 100 89 0 c124 0 177
42 177 141 0 99 -66 139 -234 139 l-116 0 -2 -240z m241 149 c61 -62 0 -149
-103 -149 -41 0 -46 10 -46 90 0 99 77 130 149 59z"/>
<path d="M2480 784 c0 -20 -36 -121 -80 -224 -95 -222 -95 -224 -25 -216 42 4
54 16 50 46 -7 61 18 86 95 90 110 6 116 4 130 -58 11 -51 95 -104 121 -77 33
33 -187 474 -236 475 -40 0 -55 -10 -55 -36z m89 -143 c44 -84 39 -101 -29
-101 -67 0 -69 7 -38 97 27 77 30 77 67 4z"/>
<path d="M2990 584 l0 -236 61 -2 62 -2 -9 108 c-11 138 17 140 98 8 34 -55
73 -100 88 -100 15 0 41 -5 58 -12 52 -20 37 30 -38 121 -78 94 -84 111 -41
111 16 0 39 17 50 39 63 117 -23 201 -207 201 l-122 0 0 -236z m238 131 c30
-48 -7 -103 -75 -111 -50 -6 -53 -2 -53 76 0 91 79 113 128 35z"/>
<path d="M3580 600 c0 -121 0 -227 0 -235 0 -8 23 -15 51 -15 l50 0 4 235 5
235 -55 0 -55 0 0 -220z"/>
<path d="M3963 788 c-87 -61 -54 -165 75 -237 127 -71 144 -102 75 -133 -42
-20 -62 -16 -122 19 l-71 42 0 -48 c0 -91 216 -115 284 -31 74 92 42 157 -120
239 -59 29 -84 54 -80 77 9 48 110 56 158 12 36 -33 38 -32 38 17 0 79 -147
106 -237 43z"/>
</g>
</svg>
