<?xml version="1.0" encoding="UTF-8"?>
<svg version="1.1" xmlns="http://www.w3.org/2000/svg" width="500" height="500">
<path d="M0 0 C0.86092255 -0.00281982 1.72184509 -0.00563965 2.6088562 -0.00854492 C4.02098389 -0.00550858 4.02098389 -0.00550858 5.4616394 -0.00241089 C6.95218338 -0.00503937 6.95218338 -0.00503937 8.47283936 -0.00772095 C11.76323178 -0.01212877 15.05357064 -0.00920565 18.34396362 -0.00582886 C20.62414561 -0.0065021 22.90432753 -0.00747229 25.18450928 -0.00872803 C29.96439293 -0.01020346 34.74425792 -0.00805498 39.5241394 -0.00338745 C45.66594487 0.00231619 51.8077067 -0.00097417 57.94951057 -0.00695992 C62.65735201 -0.01056418 67.36518301 -0.00942768 72.07302475 -0.00683212 C74.33856079 -0.00616281 76.60409777 -0.00699141 78.86963272 -0.00931168 C82.02793154 -0.01183668 85.18615847 -0.00800005 88.3444519 -0.00241089 C89.76265228 -0.00544724 89.76265228 -0.00544724 91.20950317 -0.00854492 C97.6593875 0.01272002 97.6593875 0.01272002 98.77365112 1.12698364 C98.81445895 3.12656728 98.81619469 5.12743618 98.77365112 7.12698364 C95.37732717 8.15377926 92.03392361 9.07360251 88.55490112 9.78713989 C87.41021362 10.02303833 86.26552612 10.25893677 85.08615112 10.50198364 C83.98915894 10.71596802 82.89216675 10.92995239 81.76193237 11.15042114 C78.39200665 12.25170406 76.93214185 13.34084668 74.77365112 16.12698364 C73.96599234 19.7742006 73.96599234 19.7742006 73.77365112 23.12698364 C73.11365112 23.12698364 72.45365112 23.12698364 71.77365112 23.12698364 C72.26865112 24.61198364 72.26865112 24.61198364 72.77365112 26.12698364 C73.10365112 26.12698364 73.43365112 26.12698364 73.77365112 26.12698364 C74.28269769 27.99954782 74.78047567 29.87517705 75.27365112 31.75198364 C75.55208862 32.79612427 75.83052612 33.84026489 76.11740112 34.91604614 C76.76483709 38.08385782 76.88978032 40.90439832 76.77365112 44.12698364 C77.43365112 44.12698364 78.09365112 44.12698364 78.77365112 44.12698364 C78.77365112 45.77698364 78.77365112 47.42698364 78.77365112 49.12698364 C79.43365112 49.12698364 80.09365112 49.12698364 80.77365112 49.12698364 C82.52479389 52.85767911 83.71409492 55.63351797 84.21115112 59.75198364 C84.86568793 63.6792045 86.16153005 65.19824183 88.77365112 68.12698364 C90.72082746 71.24246578 90.97682823 73.46979573 90.77365112 77.12698364 C92.25865112 77.62198364 92.25865112 77.62198364 93.77365112 78.12698364 C95.12521362 80.92776489 95.12521362 80.92776489 96.39865112 84.43948364 C96.82404175 85.59061646 97.24943237 86.74174927 97.68771362 87.92776489 C98.77365112 91.12698364 98.77365112 91.12698364 99.33615112 93.43167114 C99.69203253 95.26164595 99.69203253 95.26164595 101.14865112 96.93948364 C104.36469566 101.26877437 106.26707372 105.69933505 105.77365112 111.12698364 C107.25865112 111.62198364 107.25865112 111.62198364 108.77365112 112.12698364 C108.77365112 114.43698364 108.77365112 116.74698364 108.77365112 119.12698364 C109.43365112 119.12698364 110.09365112 119.12698364 110.77365112 119.12698364 C111.76365112 123.08698364 111.76365112 123.08698364 112.77365112 127.12698364 C113.43365112 127.12698364 114.09365112 127.12698364 114.77365112 127.12698364 C115.26865112 130.59198364 115.26865112 130.59198364 115.77365112 134.12698364 C116.43365112 134.12698364 117.09365112 134.12698364 117.77365112 134.12698364 C118.26865112 137.59198364 118.26865112 137.59198364 118.77365112 141.12698364 C119.43365112 141.12698364 120.09365112 141.12698364 120.77365112 141.12698364 C121.10365112 143.43698364 121.43365112 145.74698364 121.77365112 148.12698364 C122.76365112 148.45698364 123.75365112 148.78698364 124.77365112 149.12698364 C125.94161987 151.23635864 125.94161987 151.23635864 126.96115112 153.87698364 C127.30533081 154.73807739 127.6495105 155.59917114 128.00411987 156.48635864 C128.78784357 159.17568463 128.91885874 161.3430032 128.77365112 164.12698364 C129.43365112 164.12698364 130.09365112 164.12698364 130.77365112 164.12698364 C131.08302612 165.24073364 131.39240112 166.35448364 131.71115112 167.50198364 C132.77524925 171.13243609 133.68378202 172.99217999 135.77365112 176.12698364 C135.93865112 176.82823364 136.10365112 177.52948364 136.27365112 178.25198364 C136.43865112 178.87073364 136.60365112 179.48948364 136.77365112 180.12698364 C137.43365112 180.45698364 138.09365112 180.78698364 138.77365112 181.12698364 C138.73240112 182.07573364 138.69115112 183.02448364 138.64865112 184.00198364 C138.42391295 187.2294322 138.42391295 187.2294322 140.77365112 189.12698364 C141.43365112 189.12698364 142.09365112 189.12698364 142.77365112 189.12698364 C145.31593985 185.31355055 145.89273682 183.65223994 145.77365112 179.12698364 C146.43365112 179.12698364 147.09365112 179.12698364 147.77365112 179.12698364 C148.9785436 176.71719868 149.71970546 174.42003982 150.20724487 171.77151489 C150.81122558 168.9515498 151.73543607 166.47750393 152.83615112 163.81448364 C153.19837769 162.93147583 153.56060425 162.04846802 153.93380737 161.13870239 C154.21095581 160.47483521 154.48810425 159.81096802 154.77365112 159.12698364 C155.43365112 159.12698364 156.09365112 159.12698364 156.77365112 159.12698364 C156.77365112 157.47698364 156.77365112 155.82698364 156.77365112 154.12698364 C157.43365112 154.12698364 158.09365112 154.12698364 158.77365112 154.12698364 C158.77365112 152.47698364 158.77365112 150.82698364 158.77365112 149.12698364 C159.43365112 149.12698364 160.09365112 149.12698364 160.77365112 149.12698364 C161.52792409 144.14792105 161.52792409 144.14792105 161.77365112 139.12698364 C163.14865112 137.12698364 163.14865112 137.12698364 164.77365112 135.12698364 C167.05283783 131.77309241 167.05283783 131.77309241 168.14865112 128.00198364 C168.97583756 124.19692605 170.3593883 120.75487524 171.77365112 117.12698364 C172.43365112 117.12698364 173.09365112 117.12698364 173.77365112 117.12698364 C173.44365112 115.47698364 173.11365112 113.82698364 172.77365112 112.12698364 C173.43365112 112.12698364 174.09365112 112.12698364 174.77365112 112.12698364 C175.10365112 111.46698364 175.43365112 110.80698364 175.77365112 110.12698364 C176.10365112 109.46698364 176.43365112 108.80698364 176.77365112 108.12698364 C177.10365112 107.13698364 177.43365112 106.14698364 177.77365112 105.12698364 C178.10365112 104.46698364 178.43365112 103.80698364 178.77365112 103.12698364 C179.12978209 101.46503911 179.4657342 99.79853264 179.77365112 98.12698364 C180.43365112 98.12698364 181.09365112 98.12698364 181.77365112 98.12698364 C181.77365112 95.81698364 181.77365112 93.50698364 181.77365112 91.12698364 C182.76365112 90.79698364 183.75365112 90.46698364 184.77365112 90.12698364 C184.89740112 89.07510864 185.02115112 88.02323364 185.14865112 86.93948364 C185.68505895 83.66739593 186.41245147 81.12162288 187.77365112 78.12698364 C188.43365112 78.12698364 189.09365112 78.12698364 189.77365112 78.12698364 C189.77365112 76.47698364 189.77365112 74.82698364 189.77365112 73.12698364 C190.43365112 73.12698364 191.09365112 73.12698364 191.77365112 73.12698364 C191.77365112 71.47698364 191.77365112 69.82698364 191.77365112 68.12698364 C192.43365112 68.12698364 193.09365112 68.12698364 193.77365112 68.12698364 C193.44365112 66.80698364 193.11365112 65.48698364 192.77365112 64.12698364 C193.76365112 63.79698364 194.75365112 63.46698364 195.77365112 63.12698364 C198.76936673 57.73469555 199.95292654 52.17982741 200.77365112 46.12698364 C201.73239146 42.80031998 202.7719473 39.50725798 203.83615112 36.21292114 C204.65386907 33.52126624 205.28000328 30.89346843 205.77365112 28.12698364 C206.43365112 28.12698364 207.09365112 28.12698364 207.77365112 28.12698364 C207.83599146 24.1193907 207.85851436 20.52180781 205.32443237 17.26370239 C200.76287765 13.27605261 196.78143546 11.01527537 190.64865112 11.12698364 C186.77365112 11.12698364 186.77365112 11.12698364 183.77365112 9.12698364 C182.48671531 6.9595128 181.77365112 5.65898336 181.77365112 3.12698364 C180.78365112 2.13698364 180.78365112 2.13698364 179.77365112 1.12698364 C183.30649834 -0.0506321 186.49164816 -0.01292341 190.16671753 -0.00241089 C190.91657425 -0.00416321 191.66643097 -0.00591553 192.43901062 -0.00772095 C194.91776848 -0.01212273 197.39645503 -0.00920794 199.87521362 -0.00582886 C201.59488946 -0.00650224 203.31456521 -0.00747254 205.03424072 -0.00872803 C208.63716539 -0.01020261 212.24006527 -0.00805758 215.84298706 -0.00338745 C220.47144346 0.00231826 225.09984199 -0.000976 229.72829628 -0.00695992 C233.27806031 -0.01056467 236.82781049 -0.00942749 240.37757492 -0.00683212 C242.08489361 -0.00616306 243.79221355 -0.00699056 245.49953079 -0.00931168 C247.8795126 -0.01183773 250.25939911 -0.0079987 252.63937378 -0.00241089 C253.35107224 -0.00443512 254.06277069 -0.00645935 254.79603577 -0.00854492 C259.65938659 0.01271911 259.65938659 0.01271911 260.77365112 1.12698364 C260.81445895 3.12656728 260.81619469 5.12743618 260.77365112 7.12698364 C259.70115112 7.49823364 258.62865112 7.86948364 257.52365112 8.25198364 C245.68101543 12.36212192 245.68101543 12.36212192 237.77365112 21.25198364 C236.77365112 23.12698364 236.77365112 23.12698364 234.77365112 24.12698364 C234.04909478 25.76931136 233.39590717 27.44323199 232.77365112 29.12698364 C232.23839279 30.40052934 231.69655632 31.67132749 231.14865112 32.93948364 C230.69490112 33.99135864 230.24115112 35.04323364 229.77365112 36.12698364 C229.11365112 35.79698364 228.45365112 35.46698364 227.77365112 35.12698364 C227.44365112 37.43698364 227.11365112 39.74698364 226.77365112 42.12698364 C226.11365112 42.12698364 225.45365112 42.12698364 224.77365112 42.12698364 C224.77365112 43.77698364 224.77365112 45.42698364 224.77365112 47.12698364 C224.11365112 47.12698364 223.45365112 47.12698364 222.77365112 47.12698364 C222.77365112 48.77698364 222.77365112 50.42698364 222.77365112 52.12698364 C222.11365112 52.12698364 221.45365112 52.12698364 220.77365112 52.12698364 C220.69115112 53.07573364 220.60865112 54.02448364 220.52365112 55.00198364 C219.83373346 60.01675831 217.77027468 64.5115329 215.77365112 69.12698364 C215.11365112 69.12698364 214.45365112 69.12698364 213.77365112 69.12698364 C213.64603394 69.71221802 213.51841675 70.29745239 213.38693237 70.90042114 C212.79024437 73.06674063 212.01648742 74.77585592 210.96115112 76.75198364 C209.35774948 79.89418101 207.88651661 83.06009665 206.52365112 86.31448364 C206.18849487 87.11241333 205.85333862 87.91034302 205.50802612 88.73245239 C204.71525131 91.31740429 204.63996622 93.43896225 204.77365112 96.12698364 C204.11365112 96.12698364 203.45365112 96.12698364 202.77365112 96.12698364 C203.10365112 97.77698364 203.43365112 99.42698364 203.77365112 101.12698364 C202.78365112 101.12698364 201.79365112 101.12698364 200.77365112 101.12698364 C200.55708862 102.02417114 200.55708862 102.02417114 200.33615112 102.93948364 C199.88640723 104.68848769 199.34472771 106.41375387 198.77365112 108.12698364 C198.65119019 108.85272583 198.52872925 109.57846802 198.40255737 110.32620239 C197.56808991 114.04243326 196.16049409 117.42541544 194.71115112 120.93948364 C194.42949097 121.63235474 194.14783081 122.32522583 193.8576355 123.03909302 C193.16690139 124.73665989 192.47081384 126.43204676 191.77365112 128.12698364 C191.11365112 128.12698364 190.45365112 128.12698364 189.77365112 128.12698364 C189.46427612 129.22010864 189.15490112 130.31323364 188.83615112 131.43948364 C188.19027216 133.68106359 187.51133942 135.91391874 186.77365112 138.12698364 C186.06467794 140.64777717 185.77365112 142.4679639 185.77365112 145.12698364 C185.11365112 145.12698364 184.45365112 145.12698364 183.77365112 145.12698364 C183.44365112 146.77698364 183.11365112 148.42698364 182.77365112 150.12698364 C182.11365112 150.12698364 181.45365112 150.12698364 180.77365112 150.12698364 C180.77365112 151.77698364 180.77365112 153.42698364 180.77365112 155.12698364 C180.11365112 155.12698364 179.45365112 155.12698364 178.77365112 155.12698364 C178.77365112 156.77698364 178.77365112 158.42698364 178.77365112 160.12698364 C178.11365112 160.12698364 177.45365112 160.12698364 176.77365112 160.12698364 C175.60288413 164.10759141 174.51615709 168.04320081 173.77365112 172.12698364 C173.11365112 172.12698364 172.45365112 172.12698364 171.77365112 172.12698364 C170.34941139 176.95956276 170.34941139 176.95956276 169.27365112 181.87698364 C168.77365112 184.12698364 168.77365112 184.12698364 166.77365112 187.12698364 C165.65579999 189.24483477 165.65579999 189.24483477 164.77365112 192.12698364 C164.44365112 192.78698364 164.11365112 193.44698364 163.77365112 194.12698364 C163.43595309 195.79277142 163.103282 197.45958076 162.77365112 199.12698364 C162.27307247 200.9036488 161.7523323 202.67476242 161.21115112 204.43948364 C160.80703003 205.76399536 160.80703003 205.76399536 160.39474487 207.11526489 C160.18978394 207.77913208 159.984823 208.44299927 159.77365112 209.12698364 C158.78365112 209.12698364 157.79365112 209.12698364 156.77365112 209.12698364 C155.34941139 213.95956276 155.34941139 213.95956276 154.27365112 218.87698364 C153.77365112 221.12698364 153.77365112 221.12698364 151.77365112 224.12698364 C151.18553882 226.06258064 151.18553882 226.06258064 150.77365112 228.12698364 C150.10698446 230.79365031 149.44031779 233.46031698 148.77365112 236.12698364 C147.78365112 236.12698364 146.79365112 236.12698364 145.77365112 236.12698364 C145.77365112 238.43698364 145.77365112 240.74698364 145.77365112 243.12698364 C145.11365112 243.12698364 144.45365112 243.12698364 143.77365112 243.12698364 C143.44365112 244.77698364 143.11365112 246.42698364 142.77365112 248.12698364 C142.11365112 248.12698364 141.45365112 248.12698364 140.77365112 248.12698364 C138.79365112 252.08698364 138.79365112 252.08698364 136.77365112 256.12698364 C132.25747513 256.203529 128.18279895 256.2292706 123.77365112 255.12698364 C123.44365112 251.82698364 123.11365112 248.52698364 122.77365112 245.12698364 C122.11365112 245.12698364 121.45365112 245.12698364 120.77365112 245.12698364 C120.27865112 241.66198364 120.27865112 241.66198364 119.77365112 238.12698364 C119.11365112 238.12698364 118.45365112 238.12698364 117.77365112 238.12698364 C117.67052612 237.01323364 117.56740112 235.89948364 117.46115112 234.75198364 C117.23427612 233.55573364 117.00740112 232.35948364 116.77365112 231.12698364 C115.28865112 230.13698364 115.28865112 230.13698364 113.77365112 229.12698364 C113.08615112 225.50198364 113.08615112 225.50198364 112.77365112 222.12698364 C112.11365112 222.12698364 111.45365112 222.12698364 110.77365112 222.12698364 C109.78365112 217.67198364 109.78365112 217.67198364 108.77365112 213.12698364 C108.11365112 213.12698364 107.45365112 213.12698364 106.77365112 213.12698364 C106.12454958 211.54498733 105.47950418 209.9613264 104.83615112 208.37698364 C104.29667847 207.05440552 104.29667847 207.05440552 103.74630737 205.70510864 C102.77365112 203.12698364 102.77365112 203.12698364 102.26974487 200.92385864 C101.86788232 198.89226566 101.86788232 198.89226566 99.77365112 197.12698364 C99.37317668 194.80423187 99.03394073 192.46959007 98.77365112 190.12698364 C98.11365112 190.12698364 97.45365112 190.12698364 96.77365112 190.12698364 C96.77365112 188.47698364 96.77365112 186.82698364 96.77365112 185.12698364 C95.78365112 184.79698364 94.79365112 184.46698364 93.77365112 184.12698364 C93.44365112 181.48698364 93.11365112 178.84698364 92.77365112 176.12698364 C92.11365112 176.12698364 91.45365112 176.12698364 90.77365112 176.12698364 C89.78365112 171.67198364 89.78365112 171.67198364 88.77365112 167.12698364 C88.11365112 167.12698364 87.45365112 167.12698364 86.77365112 167.12698364 C86.30958862 165.45635864 86.30958862 165.45635864 85.83615112 163.75198364 C84.77205299 160.1215312 83.86352022 158.26178729 81.77365112 155.12698364 C81.60865112 154.44635864 81.44365112 153.76573364 81.27365112 153.06448364 C80.89167482 150.90635066 80.89167482 150.90635066 78.77365112 149.12698364 C78.37317668 146.80423187 78.03394073 144.46959007 77.77365112 142.12698364 C77.11365112 142.12698364 76.45365112 142.12698364 75.77365112 142.12698364 C75.27865112 138.66198364 75.27865112 138.66198364 74.77365112 135.12698364 C74.11365112 135.12698364 73.45365112 135.12698364 72.77365112 135.12698364 C72.27865112 131.66198364 72.27865112 131.66198364 71.77365112 128.12698364 C71.11365112 128.12698364 70.45365112 128.12698364 69.77365112 128.12698364 C68.95760114 126.21182574 68.1459448 124.2947953 67.33615112 122.37698364 C66.88369019 121.30963989 66.43122925 120.24229614 65.96505737 119.14260864 C64.77365112 116.12698364 64.77365112 116.12698364 64.21115112 113.85745239 C63.85871764 111.95636551 63.85871764 111.95636551 62.21115112 110.18948364 C60.42664121 107.62909985 60.77365112 106.17769328 60.77365112 103.12698364 C59.35698446 101.54365031 59.35698446 101.54365031 57.77365112 100.12698364 C57.40154692 98.80394647 57.06734939 97.4696043 56.77365112 96.12698364 C56.11365112 95.13698364 55.45365112 94.14698364 54.77365112 93.12698364 C54.60865112 92.44635864 54.44365112 91.76573364 54.27365112 91.06448364 C53.89167482 88.90635066 53.89167482 88.90635066 51.77365112 87.12698364 C51.03406725 85.52501706 50.35255178 83.89572524 49.71115112 82.25198364 C49.36954956 81.38831177 49.027948 80.52463989 48.67599487 79.63479614 C47.77365112 77.12698364 47.77365112 77.12698364 47.27755737 74.93167114 C46.86769423 72.89376607 46.86769423 72.89376607 44.77365112 71.12698364 C44.62927612 70.07510864 44.48490112 69.02323364 44.33615112 67.93948364 C43.72317446 63.78486406 42.54534635 60.90146479 40.77365112 57.12698364 C40.11365112 57.12698364 39.45365112 57.12698364 38.77365112 57.12698364 C38.69115112 56.05448364 38.60865112 54.98198364 38.52365112 53.87698364 C37.7188821 49.85313854 36.89635238 48.64529111 33.77365112 46.12698364 C34.10365112 45.13698364 34.43365112 44.14698364 34.77365112 43.12698364 C34.11365112 42.46698364 33.45365112 41.80698364 32.77365112 41.12698364 C32.44365112 40.13698364 32.11365112 39.14698364 31.77365112 38.12698364 C30.82635575 35.96886976 30.82635575 35.96886976 28.77365112 34.12698364 C28.15935483 31.84043635 27.75956809 29.54952699 27.33615112 27.22073364 C26.90684262 24.92722294 26.90684262 24.92722294 24.77365112 23.12698364 C24.11365112 22.79698364 23.45365112 22.46698364 22.77365112 22.12698364 C22.647323 21.50952271 22.52099487 20.89206177 22.39083862 20.25588989 C21.34327684 16.64246476 18.5026457 15.4457012 15.44161987 13.51370239 C11.07525274 11.24421435 6.55340708 10.18525806 1.77365112 9.12698364 C0.2102085 8.73488999 -1.352414 8.33949788 -2.91384888 7.93948364 C-4.00697388 7.67135864 -5.10009888 7.40323364 -6.22634888 7.12698364 C-6.02009888 6.50823364 -5.81384888 5.88948364 -5.60134888 5.25198364 C-5.47759888 4.55073364 -5.35384888 3.84948364 -5.22634888 3.12698364 C-5.88634888 2.46698364 -6.54634888 1.80698364 -7.22634888 1.12698364 C-4.46639032 0.20699746 -2.84334511 0.00143295 0 0 Z M72.77365112 32.12698364 C73.77365112 35.12698364 73.77365112 35.12698364 73.77365112 35.12698364 Z M205.77365112 33.12698364 C206.77365112 36.12698364 206.77365112 36.12698364 206.77365112 36.12698364 Z M204.77365112 37.12698364 C205.77365112 39.12698364 205.77365112 39.12698364 205.77365112 39.12698364 Z M74.77365112 39.12698364 C75.77365112 41.12698364 75.77365112 41.12698364 75.77365112 41.12698364 Z M203.77365112 40.12698364 C204.77365112 42.12698364 204.77365112 42.12698364 204.77365112 42.12698364 Z M202.77365112 43.12698364 C203.77365112 45.12698364 203.77365112 45.12698364 203.77365112 45.12698364 Z M201.77365112 46.12698364 C202.77365112 48.12698364 202.77365112 48.12698364 202.77365112 48.12698364 Z M79.77365112 52.12698364 C80.77365112 54.12698364 80.77365112 54.12698364 80.77365112 54.12698364 Z M80.77365112 54.12698364 C81.77365112 56.12698364 81.77365112 56.12698364 81.77365112 56.12698364 Z M217.77365112 57.12698364 C218.77365112 59.12698364 218.77365112 59.12698364 218.77365112 59.12698364 Z M214.77365112 64.12698364 C215.77365112 66.12698364 215.77365112 66.12698364 215.77365112 66.12698364 Z M87.77365112 70.12698364 C88.77365112 72.12698364 88.77365112 72.12698364 88.77365112 72.12698364 Z M91.77365112 79.12698364 C92.77365112 81.12698364 92.77365112 81.12698364 92.77365112 81.12698364 Z M50.77365112 80.12698364 C51.77365112 82.12698364 51.77365112 82.12698364 51.77365112 82.12698364 Z M186.77365112 83.12698364 C187.77365112 85.12698364 187.77365112 85.12698364 187.77365112 85.12698364 Z M52.77365112 84.12698364 C53.77365112 86.12698364 53.77365112 86.12698364 53.77365112 86.12698364 Z M94.77365112 86.12698364 C95.77365112 88.12698364 95.77365112 88.12698364 95.77365112 88.12698364 Z M185.77365112 86.12698364 C186.77365112 88.12698364 186.77365112 88.12698364 186.77365112 88.12698364 Z M182.77365112 93.12698364 C183.77365112 95.12698364 183.77365112 95.12698364 183.77365112 95.12698364 Z M99.77365112 98.12698364 C100.77365112 100.12698364 100.77365112 100.12698364 100.77365112 100.12698364 Z M100.77365112 100.12698364 C101.77365112 102.12698364 101.77365112 102.12698364 101.77365112 102.12698364 Z M179.77365112 100.12698364 C180.77365112 102.12698364 180.77365112 102.12698364 180.77365112 102.12698364 Z M101.77365112 102.12698364 C102.77365112 104.12698364 102.77365112 104.12698364 102.77365112 104.12698364 Z M61.77365112 105.12698364 C62.77365112 107.12698364 62.77365112 107.12698364 62.77365112 107.12698364 Z M195.77365112 111.12698364 C196.77365112 113.12698364 196.77365112 113.12698364 196.77365112 113.12698364 Z M193.77365112 116.12698364 C194.77365112 118.12698364 194.77365112 118.12698364 194.77365112 118.12698364 Z M66.77365112 117.12698364 C67.77365112 119.12698364 67.77365112 119.12698364 67.77365112 119.12698364 Z M68.77365112 121.12698364 C69.77365112 123.12698364 69.77365112 123.12698364 69.77365112 123.12698364 Z M170.77365112 122.12698364 C171.77365112 124.12698364 171.77365112 124.12698364 171.77365112 124.12698364 Z M190.77365112 123.12698364 C191.77365112 125.12698364 191.77365112 125.12698364 191.77365112 125.12698364 Z M169.77365112 125.12698364 C170.77365112 127.12698364 170.77365112 127.12698364 170.77365112 127.12698364 Z M168.77365112 127.12698364 C169.77365112 129.12698364 169.77365112 129.12698364 169.77365112 129.12698364 Z M164.77365112 137.12698364 C165.77365112 139.12698364 165.77365112 139.12698364 165.77365112 139.12698364 Z M162.77365112 142.12698364 C163.77365112 144.12698364 163.77365112 144.12698364 163.77365112 144.12698364 Z M182.77365112 143.12698364 C183.77365112 145.12698364 183.77365112 145.12698364 183.77365112 145.12698364 Z M122.77365112 150.12698364 C123.77365112 152.12698364 123.77365112 152.12698364 123.77365112 152.12698364 Z M86.77365112 162.12698364 C87.77365112 164.12698364 87.77365112 164.12698364 87.77365112 164.12698364 Z M153.77365112 164.12698364 C154.77365112 166.12698364 154.77365112 166.12698364 154.77365112 166.12698364 Z M151.77365112 169.12698364 C152.77365112 171.12698364 152.77365112 171.12698364 152.77365112 171.12698364 Z M94.77365112 181.12698364 C95.77365112 183.12698364 95.77365112 183.12698364 95.77365112 183.12698364 Z M146.77365112 181.12698364 C147.77365112 183.12698364 147.77365112 183.12698364 147.77365112 183.12698364 Z M142.77365112 191.12698364 C143.77365112 193.12698364 143.77365112 193.12698364 143.77365112 193.12698364 Z M160.77365112 197.12698364 C161.77365112 199.12698364 161.77365112 199.12698364 161.77365112 199.12698364 Z M159.77365112 199.12698364 C160.77365112 201.12698364 160.77365112 201.12698364 160.77365112 201.12698364 Z M158.77365112 202.12698364 C159.77365112 204.12698364 159.77365112 204.12698364 159.77365112 204.12698364 Z M104.77365112 204.12698364 C105.77365112 206.12698364 105.77365112 206.12698364 105.77365112 206.12698364 Z M157.77365112 204.12698364 C158.77365112 206.12698364 158.77365112 206.12698364 158.77365112 206.12698364 Z M106.77365112 208.12698364 C107.77365112 210.12698364 107.77365112 210.12698364 107.77365112 210.12698364 Z M152.77365112 217.12698364 C153.77365112 219.12698364 153.77365112 219.12698364 153.77365112 219.12698364 Z M147.77365112 229.12698364 C148.77365112 231.12698364 148.77365112 231.12698364 148.77365112 231.12698364 Z M143.77365112 239.12698364 C144.77365112 241.12698364 144.77365112 241.12698364 144.77365112 241.12698364 Z M142.77365112 241.12698364 C143.77365112 243.12698364 143.77365112 243.12698364 143.77365112 243.12698364 Z M141.77365112 244.12698364 C142.77365112 246.12698364 142.77365112 246.12698364 142.77365112 246.12698364 Z " fill="#000000" transform="translate(123.22634887695313,126.87301635742188)"/>
<path d="M0 0 C33.66 0 67.32 0 102 0 C102 0.33 102 0.66 102 1 C68.34 1 34.68 1 0 1 C0 0.67 0 0.34 0 0 Z " fill="#050505" transform="translate(119,125)"/>
<path d="M0 0 C-25.41 0 -50.82 0 -77 0 C-77 -0.33 -77 -0.66 -77 -1 C-67.55124824 -1.17703933 -58.10238584 -1.34298966 -48.65319443 -1.49477577 C-44.26558601 -1.56560439 -39.87811196 -1.64025496 -35.49072266 -1.72363281 C-31.2568621 -1.80395249 -27.02294305 -1.87424208 -22.78879547 -1.93757248 C-21.17320875 -1.9635012 -19.5576759 -1.9930471 -17.9422226 -2.02626419 C-15.67994228 -2.07216418 -13.4178122 -2.10521292 -11.15527344 -2.13525391 C-9.86731873 -2.15746002 -8.57936401 -2.17966614 -7.25238037 -2.20254517 C-4 -2 -4 -2 0 0 Z " fill="#070707" transform="translate(383,126)"/>
<path d="M0 0 C1 3 1 3 0.0625 5.1875 C-0.4634375 6.0846875 -0.4634375 6.0846875 -1 7 C-1.33 6.34 -1.66 5.68 -2 5 C-1.0625 2.375 -1.0625 2.375 0 0 Z " fill="#010101" transform="translate(280,336)"/>
<path d="M0 0 C2.64 0 5.28 0 8 0 C8 0.33 8 0.66 8 1 C5.36 1 2.72 1 0 1 C0 0.67 0 0.34 0 0 Z " fill="#000000" transform="translate(252,384)"/>
<path d="M0 0 C0.66 0.33 1.32 0.66 2 1 C1.01 1.99 0.02 2.98 -1 4 C-0.67 2.68 -0.34 1.36 0 0 Z " fill="#010101" transform="translate(264,376)"/>
<path d="M0 0 C0.33 0.99 0.66 1.98 1 3 C0.34 3.66 -0.32 4.32 -1 5 C-0.67 3.35 -0.34 1.7 0 0 Z " fill="#010101" transform="translate(335,201)"/>
<path d="M0 0 C0.33 0 0.66 0 1 0 C1 1.98 1 3.96 1 6 C0.67 6 0.34 6 0 6 C0 4.02 0 2.04 0 0 Z " fill="#090909" transform="translate(330,149)"/>
<path d="M0 0 C1.98 0 3.96 0 6 0 C6 0.33 6 0.66 6 1 C4.02 1 2.04 1 0 1 C0 0.67 0 0.34 0 0 Z " fill="#030303" transform="translate(209,137)"/>
<path d="M0 0 C1.98 0 3.96 0 6 0 C6 0.33 6 0.66 6 1 C4.02 1 2.04 1 0 1 C0 0.67 0 0.34 0 0 Z " fill="#020202" transform="translate(215,136)"/>
<path d="M0 0 C0.33 0 0.66 0 1 0 C1 1.98 1 3.96 1 6 C0.67 6 0.34 6 0 6 C0 4.02 0 2.04 0 0 Z " fill="#080808" transform="translate(385,128)"/>
<path d="M0 0 C0.33 0 0.66 0 1 0 C1 1.98 1 3.96 1 6 C0.67 6 0.34 6 0 6 C0 4.02 0 2.04 0 0 Z " fill="#000000" transform="translate(223,128)"/>
<path d="M0 0 C0.99 0.99 1.98 1.98 3 3 C2.01 2.67 1.02 2.34 0 2 C0 1.34 0 0.68 0 0 Z " fill="#020202" transform="translate(326,143)"/>
<path d="M0 0 C1.32 0.33 2.64 0.66 4 1 C3.01 1.33 2.02 1.66 1 2 C0.67 1.34 0.34 0.68 0 0 Z " fill="#020202" transform="translate(205,138)"/>
<path d="M0 0 C1.65 0 3.3 0 5 0 C5 0.33 5 0.66 5 1 C3.35 1 1.7 1 0 1 C0 0.67 0 0.34 0 0 Z " fill="#020202" transform="translate(120,136)"/>
<path d="M0 0 C0.99 0.495 0.99 0.495 2 1 C1.67 1.66 1.34 2.32 1 3 C0.67 2.01 0.34 1.02 0 0 Z " fill="#010101" transform="translate(295,299)"/>
<path d="M0 0 C0 3 0 3 0 3 Z " fill="#000000" transform="translate(240,258)"/>
<path d="M0 0 C0.99 0.495 0.99 0.495 2 1 C1.67 1.66 1.34 2.32 1 3 C0.67 2.01 0.34 1.02 0 0 Z " fill="#040404" transform="translate(311,202)"/>
<path d="M0 0 C0.99 0.33 1.98 0.66 3 1 C2.01 1 1.02 1 0 1 C0 0.67 0 0.34 0 0 Z " fill="#020202" transform="translate(130,138)"/>
<path d="M0 0 C4 1 4 1 4 1 Z " fill="#020202" transform="translate(376,137)"/>
<path d="M0 0 C4 1 4 1 4 1 Z " fill="#020202" transform="translate(126,137)"/>
<path d="M0 0 C0.66 0.66 1.32 1.32 2 2 C1.34 2 0.68 2 0 2 C0 1.34 0 0.68 0 0 Z " fill="#010101" transform="translate(293,304)"/>
<path d="" fill="#010101" transform="translate(0,0)"/>
<path d="" fill="#010101" transform="translate(0,0)"/>
<path d="M0 0 C0.33 0.66 0.66 1.32 1 2 C0.34 1.67 -0.32 1.34 -1 1 C-0.67 0.67 -0.34 0.34 0 0 Z " fill="#000000" transform="translate(194,255)"/>
<path d="M0 0 C0.99 0.495 0.99 0.495 2 1 C1.01 1.495 1.01 1.495 0 2 C0 1.34 0 0.68 0 0 Z " fill="#000000" transform="translate(232,243)"/>
<path d="" fill="#010101" transform="translate(0,0)"/>
<path d="M0 0 C0.66 0.66 1.32 1.32 2 2 C1.34 2 0.68 2 0 2 C0 1.34 0 0.68 0 0 Z " fill="#020202" transform="translate(331,211)"/>
<path d="" fill="#020202" transform="translate(0,0)"/>
<path d="M0 0 C0.33 0.66 0.66 1.32 1 2 C0.34 1.67 -0.32 1.34 -1 1 C-0.67 0.67 -0.34 0.34 0 0 Z " fill="#020202" transform="translate(215,194)"/>
<path d="M0 0 C0.33 0.66 0.66 1.32 1 2 C0.34 1.67 -0.32 1.34 -1 1 C-0.67 0.67 -0.34 0.34 0 0 Z " fill="#020202" transform="translate(318,188)"/>
<path d="" fill="#060606" transform="translate(0,0)"/>
<path d="" fill="#020202" transform="translate(0,0)"/>
<path d="M0 0 C3 1 3 1 3 1 Z " fill="#020202" transform="translate(318,139)"/>
<path d="M0 0 C3 1 3 1 3 1 Z " fill="#000000" transform="translate(202,139)"/>
<path d="M0 0 C3 1 3 1 3 1 Z " fill="#010101" transform="translate(373,138)"/>
<path d="M0 0 C3 1 3 1 3 1 Z " fill="#030303" transform="translate(315,138)"/>
<path d="M0 0 C3 1 3 1 3 1 Z " fill="#020202" transform="translate(380,136)"/>
<path d="" fill="#040404" transform="translate(0,0)"/>
<path d="M0 0 C3 1 3 1 3 1 Z " fill="#030303" transform="translate(113,129)"/>
<path d="" fill="#010101" transform="translate(0,0)"/>
<path d="" fill="#030303" transform="translate(0,0)"/>
<path d="" fill="#030303" transform="translate(0,0)"/>
<path d="" fill="#010101" transform="translate(0,0)"/>
<path d="" fill="#010101" transform="translate(0,0)"/>
<path d="" fill="#030303" transform="translate(0,0)"/>
<path d="" fill="#010101" transform="translate(0,0)"/>
<path d="" fill="#030303" transform="translate(0,0)"/>
<path d="" fill="#030303" transform="translate(0,0)"/>
<path d="" fill="#040404" transform="translate(0,0)"/>
<path d="" fill="#020202" transform="translate(0,0)"/>
<path d="" fill="#010101" transform="translate(0,0)"/>
<path d="" fill="#020202" transform="translate(0,0)"/>
<path d="M0 0 C2 1 2 1 2 1 Z " fill="#030303" transform="translate(294,318)"/>
<path d="" fill="#030303" transform="translate(0,0)"/>
<path d="" fill="#010101" transform="translate(0,0)"/>
<path d="" fill="#010101" transform="translate(0,0)"/>
<path d="" fill="#010101" transform="translate(0,0)"/>
<path d="" fill="#010101" transform="translate(0,0)"/>
<path d="" fill="#030303" transform="translate(0,0)"/>
<path d="" fill="#020202" transform="translate(0,0)"/>
<path d="" fill="#000000" transform="translate(0,0)"/>
<path d="" fill="#020202" transform="translate(0,0)"/>
<path d="" fill="#000000" transform="translate(0,0)"/>
<path d="" fill="#070707" transform="translate(0,0)"/>
<path d="M0 0 C2 1 2 1 2 1 Z " fill="#050505" transform="translate(297,299)"/>
<path d="" fill="#010101" transform="translate(0,0)"/>
<path d="" fill="#020202" transform="translate(0,0)"/>
<path d="" fill="#030303" transform="translate(0,0)"/>
<path d="" fill="#010101" transform="translate(0,0)"/>
<path d="" fill="#010101" transform="translate(0,0)"/>
<path d="" fill="#030303" transform="translate(0,0)"/>
<path d="" fill="#010101" transform="translate(0,0)"/>
<path d="" fill="#010101" transform="translate(0,0)"/>
<path d="" fill="#030303" transform="translate(0,0)"/>
<path d="" fill="#020202" transform="translate(0,0)"/>
<path d="" fill="#010101" transform="translate(0,0)"/>
<path d="" fill="#030303" transform="translate(0,0)"/>
<path d="" fill="#010101" transform="translate(0,0)"/>
<path d="" fill="#010101" transform="translate(0,0)"/>
<path d="" fill="#030303" transform="translate(0,0)"/>
<path d="" fill="#010101" transform="translate(0,0)"/>
<path d="" fill="#020202" transform="translate(0,0)"/>
<path d="" fill="#020202" transform="translate(0,0)"/>
<path d="" fill="#010101" transform="translate(0,0)"/>
<path d="" fill="#020202" transform="translate(0,0)"/>
<path d="" fill="#020202" transform="translate(0,0)"/>
<path d="" fill="#010101" transform="translate(0,0)"/>
<path d="" fill="#010101" transform="translate(0,0)"/>
<path d="" fill="#040404" transform="translate(0,0)"/>
<path d="" fill="#080808" transform="translate(0,0)"/>
<path d="" fill="#020202" transform="translate(0,0)"/>
<path d="" fill="#010101" transform="translate(0,0)"/>
<path d="" fill="#020202" transform="translate(0,0)"/>
<path d="" fill="#040404" transform="translate(0,0)"/>
<path d="" fill="#040404" transform="translate(0,0)"/>
<path d="" fill="#010101" transform="translate(0,0)"/>
<path d="" fill="#020202" transform="translate(0,0)"/>
<path d="" fill="#030303" transform="translate(0,0)"/>
<path d="" fill="#010101" transform="translate(0,0)"/>
<path d="" fill="#000000" transform="translate(0,0)"/>
<path d="" fill="#010101" transform="translate(0,0)"/>
<path d="" fill="#020202" transform="translate(0,0)"/>
<path d="" fill="#060606" transform="translate(0,0)"/>
<path d="" fill="#010101" transform="translate(0,0)"/>
<path d="" fill="#020202" transform="translate(0,0)"/>
<path d="" fill="#000000" transform="translate(0,0)"/>
<path d="" fill="#020202" transform="translate(0,0)"/>
<path d="" fill="#010101" transform="translate(0,0)"/>
<path d="" fill="#020202" transform="translate(0,0)"/>
<path d="" fill="#050505" transform="translate(0,0)"/>
<path d="" fill="#020202" transform="translate(0,0)"/>
<path d="" fill="#030303" transform="translate(0,0)"/>
<path d="" fill="#010101" transform="translate(0,0)"/>
<path d="" fill="#050505" transform="translate(0,0)"/>
<path d="" fill="#000000" transform="translate(0,0)"/>
<path d="" fill="#020202" transform="translate(0,0)"/>
<path d="" fill="#010101" transform="translate(0,0)"/>
<path d="" fill="#020202" transform="translate(0,0)"/>
<path d="" fill="#040404" transform="translate(0,0)"/>
<path d="" fill="#070707" transform="translate(0,0)"/>
<path d="" fill="#030303" transform="translate(0,0)"/>
<path d="" fill="#020202" transform="translate(0,0)"/>
<path d="" fill="#080808" transform="translate(0,0)"/>
<path d="" fill="#020202" transform="translate(0,0)"/>
<path d="" fill="#020202" transform="translate(0,0)"/>
<path d="" fill="#010101" transform="translate(0,0)"/>
<path d="" fill="#020202" transform="translate(0,0)"/>
<path d="" fill="#020202" transform="translate(0,0)"/>
<path d="" fill="#020202" transform="translate(0,0)"/>
<path d="" fill="#040404" transform="translate(0,0)"/>
<path d="" fill="#010101" transform="translate(0,0)"/>
<path d="" fill="#010101" transform="translate(0,0)"/>
<path d="" fill="#010101" transform="translate(0,0)"/>
<path d="" fill="#010101" transform="translate(0,0)"/>
<path d="M0 0 C2 1 2 1 2 1 Z " fill="#010101" transform="translate(364,143)"/>
<path d="" fill="#020202" transform="translate(0,0)"/>
<path d="M0 0 C2 1 2 1 2 1 Z " fill="#000000" transform="translate(141,143)"/>
<path d="M0 0 C2 1 2 1 2 1 Z " fill="#010101" transform="translate(367,141)"/>
<path d="M0 0 C2 1 2 1 2 1 Z " fill="#010101" transform="translate(323,141)"/>
<path d="M0 0 C2 1 2 1 2 1 Z " fill="#000000" transform="translate(138,141)"/>
<path d="M0 0 C2 1 2 1 2 1 Z " fill="#010101" transform="translate(369,140)"/>
<path d="M0 0 C2 1 2 1 2 1 Z " fill="#020202" transform="translate(321,140)"/>
<path d="M0 0 C2 1 2 1 2 1 Z " fill="#010101" transform="translate(200,140)"/>
<path d="M0 0 C2 1 2 1 2 1 Z " fill="#000000" transform="translate(136,140)"/>
<path d="M0 0 C2 1 2 1 2 1 Z " fill="#020202" transform="translate(132,140)"/>
<path d="M0 0 C2 1 2 1 2 1 Z " fill="#010101" transform="translate(371,139)"/>
<path d="M0 0 C2 1 2 1 2 1 Z " fill="#010101" transform="translate(134,139)"/>
<path d="" fill="#010101" transform="translate(0,0)"/>
<path d="" fill="#000000" transform="translate(0,0)"/>
<path d="" fill="#030303" transform="translate(0,0)"/>
<path d="" fill="#030303" transform="translate(0,0)"/>
<path d="" fill="#030303" transform="translate(0,0)"/>
<path d="" fill="#030303" transform="translate(0,0)"/>
<path d="" fill="#030303" transform="translate(0,0)"/>
<path d="" fill="#030303" transform="translate(0,0)"/>
<path d="" fill="#030303" transform="translate(0,0)"/>
<path d="" fill="#030303" transform="translate(0,0)"/>
<path d="" fill="#030303" transform="translate(0,0)"/>
<path d="" fill="#030303" transform="translate(0,0)"/>
<path d="" fill="#020202" transform="translate(0,0)"/>
<path d="" fill="#030303" transform="translate(0,0)"/>
<path d="" fill="#020202" transform="translate(0,0)"/>
<path d="" fill="#020202" transform="translate(0,0)"/>
<path d="" fill="#020202" transform="translate(0,0)"/>
<path d="" fill="#020202" transform="translate(0,0)"/>
<path d="" fill="#030303" transform="translate(0,0)"/>
<path d="" fill="#020202" transform="translate(0,0)"/>
<path d="" fill="#030303" transform="translate(0,0)"/>
<path d="" fill="#020202" transform="translate(0,0)"/>
<path d="" fill="#010101" transform="translate(0,0)"/>
<path d="" fill="#020202" transform="translate(0,0)"/>
<path d="" fill="#030303" transform="translate(0,0)"/>
<path d="" fill="#030303" transform="translate(0,0)"/>
<path d="" fill="#030303" transform="translate(0,0)"/>
<path d="" fill="#020202" transform="translate(0,0)"/>
<path d="" fill="#020202" transform="translate(0,0)"/>
<path d="" fill="#020202" transform="translate(0,0)"/>
<path d="" fill="#030303" transform="translate(0,0)"/>
<path d="" fill="#030303" transform="translate(0,0)"/>
<path d="" fill="#030303" transform="translate(0,0)"/>
<path d="" fill="#050505" transform="translate(0,0)"/>
<path d="" fill="#030303" transform="translate(0,0)"/>
<path d="" fill="#020202" transform="translate(0,0)"/>
<path d="" fill="#020202" transform="translate(0,0)"/>
<path d="" fill="#050505" transform="translate(0,0)"/>
<path d="" fill="#050505" transform="translate(0,0)"/>
<path d="" fill="#020202" transform="translate(0,0)"/>
<path d="" fill="#090909" transform="translate(0,0)"/>
<path d="" fill="#020202" transform="translate(0,0)"/>
<path d="" fill="#040404" transform="translate(0,0)"/>
<path d="" fill="#020202" transform="translate(0,0)"/>
<path d="" fill="#020202" transform="translate(0,0)"/>
<path d="" fill="#050505" transform="translate(0,0)"/>
<path d="" fill="#020202" transform="translate(0,0)"/>
<path d="" fill="#010101" transform="translate(0,0)"/>
<path d="" fill="#020202" transform="translate(0,0)"/>
<path d="" fill="#050505" transform="translate(0,0)"/>
<path d="" fill="#020202" transform="translate(0,0)"/>
<path d="" fill="#050505" transform="translate(0,0)"/>
<path d="" fill="#050505" transform="translate(0,0)"/>
<path d="" fill="#020202" transform="translate(0,0)"/>
<path d="" fill="#020202" transform="translate(0,0)"/>
<path d="" fill="#050505" transform="translate(0,0)"/>
<path d="" fill="#020202" transform="translate(0,0)"/>
<path d="" fill="#040404" transform="translate(0,0)"/>
<path d="" fill="#040404" transform="translate(0,0)"/>
<path d="" fill="#050505" transform="translate(0,0)"/>
<path d="" fill="#040404" transform="translate(0,0)"/>
<path d="" fill="#050505" transform="translate(0,0)"/>
<path d="" fill="#040404" transform="translate(0,0)"/>
<path d="" fill="#020202" transform="translate(0,0)"/>
<path d="" fill="#020202" transform="translate(0,0)"/>
<path d="" fill="#040404" transform="translate(0,0)"/>
<path d="" fill="#040404" transform="translate(0,0)"/>
<path d="" fill="#020202" transform="translate(0,0)"/>
<path d="" fill="#040404" transform="translate(0,0)"/>
<path d="" fill="#040404" transform="translate(0,0)"/>
<path d="" fill="#050505" transform="translate(0,0)"/>
<path d="" fill="#020202" transform="translate(0,0)"/>
<path d="" fill="#020202" transform="translate(0,0)"/>
<path d="" fill="#020202" transform="translate(0,0)"/>
<path d="" fill="#020202" transform="translate(0,0)"/>
<path d="" fill="#000000" transform="translate(0,0)"/>
<path d="" fill="#040404" transform="translate(0,0)"/>
<path d="" fill="#050505" transform="translate(0,0)"/>
<path d="" fill="#020202" transform="translate(0,0)"/>
<path d="" fill="#010101" transform="translate(0,0)"/>
<path d="" fill="#020202" transform="translate(0,0)"/>
<path d="" fill="#060606" transform="translate(0,0)"/>
<path d="" fill="#050505" transform="translate(0,0)"/>
<path d="" fill="#000000" transform="translate(0,0)"/>
<path d="" fill="#000000" transform="translate(0,0)"/>
<path d="" fill="#000000" transform="translate(0,0)"/>
<path d="" fill="#000000" transform="translate(0,0)"/>
<path d="" fill="#000000" transform="translate(0,0)"/>
<path d="" fill="#040404" transform="translate(0,0)"/>
<path d="" fill="#020202" transform="translate(0,0)"/>
<path d="" fill="#050505" transform="translate(0,0)"/>
<path d="" fill="#010101" transform="translate(0,0)"/>
<path d="" fill="#010101" transform="translate(0,0)"/>
<path d="" fill="#020202" transform="translate(0,0)"/>
<path d="" fill="#000000" transform="translate(0,0)"/>
<path d="" fill="#010101" transform="translate(0,0)"/>
<path d="" fill="#040404" transform="translate(0,0)"/>
<path d="" fill="#010101" transform="translate(0,0)"/>
<path d="" fill="#020202" transform="translate(0,0)"/>
<path d="" fill="#020202" transform="translate(0,0)"/>
<path d="" fill="#080808" transform="translate(0,0)"/>
<path d="" fill="#030303" transform="translate(0,0)"/>
<path d="" fill="#070707" transform="translate(0,0)"/>
<path d="" fill="#030303" transform="translate(0,0)"/>
<path d="" fill="#000000" transform="translate(0,0)"/>
<path d="" fill="#040404" transform="translate(0,0)"/>
</svg>
