<svg width="400" height="100" viewBox="0 0 400 100" xmlns="http://www.w3.org/2000/svg">
  <!-- Logo VEYRON - Lettres dessinées en chemins vectoriels -->
  <g fill="#1a1a1a">
    <!-- V -->
    <path d="M 20 20 L 35 60 L 50 20 L 55 20 L 37 65 L 33 65 L 15 20 Z"/>
    
    <!-- E -->
    <path d="M 70 20 L 70 65 L 105 65 L 105 60 L 75 60 L 75 45 L 100 45 L 100 40 L 75 40 L 75 25 L 105 25 L 105 20 Z"/>
    
    <!-- Y -->
    <path d="M 120 20 L 135 40 L 150 20 L 155 20 L 137.5 45 L 137.5 65 L 132.5 65 L 132.5 45 L 115 20 Z"/>
    
    <!-- R -->
    <path d="M 170 20 L 170 65 L 175 65 L 175 45 L 195 45 C 202 45 207 40 207 32.5 C 207 25 202 20 195 20 Z M 175 25 L 195 25 C 199 25 202 28 202 32.5 C 202 37 199 40 195 40 L 175 40 Z M 195 45 L 207 65 L 213 65 L 200 45 Z"/>
    
    <!-- O -->
    <path d="M 230 20 C 220 20 215 27 215 42.5 C 215 58 220 65 230 65 C 240 65 245 58 245 42.5 C 245 27 240 20 230 20 Z M 230 25 C 237 25 240 30 240 42.5 C 240 55 237 60 230 60 C 223 60 220 55 220 42.5 C 220 30 223 25 230 25 Z"/>
    
    <!-- N -->
    <path d="M 260 20 L 260 65 L 265 65 L 265 28 L 295 65 L 300 65 L 300 20 L 295 20 L 295 57 L 265 20 Z"/>
  </g>
  
  <!-- Ligne décorative dorée -->
  <line x1="15" y1="75" x2="305" y2="75" stroke="#c9a961" stroke-width="0.8"/>
  
  <!-- Ornements -->
  <circle cx="12" cy="75" r="2" fill="#c9a961"/>
  <circle cx="308" cy="75" r="2" fill="#c9a961"/>
  
  <!-- Petite ligne d'accent -->
  <line x1="160" y1="78" x2="160" y2="85" stroke="#c9a961" stroke-width="0.5"/>
</svg>
